<?xml version="1.0" standalone="no"?><!DOCTYPE svg PUBLIC "-//W3C//DTD SVG 1.1//EN" "http://www.w3.org/Graphics/SVG/1.1/DTD/svg11.dtd"><svg t="1750845859985" class="icon" viewBox="0 0 1024 1024" version="1.1" xmlns="http://www.w3.org/2000/svg" p-id="27045" xmlns:xlink="http://www.w3.org/1999/xlink" width="200" height="200"><path d="M947.712 457.6a49.408 49.408 0 0 1-16.384 38.08L822.4 604.608a49.408 49.408 0 0 1-38.08 16.32c-32.64 0-54.464-21.76-54.464-54.464 0-16.32 5.44-27.264 16.32-38.144L762.496 512H620.928c-32.64 0-54.464-21.76-54.464-54.4 0-32.768 21.76-54.528 54.4-54.528h141.632l-16.32-16.32a49.408 49.408 0 0 1-16.32-38.144c0-32.64 21.76-54.4 54.4-54.4 16.384 0 27.264 5.376 38.144 16.256l108.928 108.928c10.88 10.88 16.384 21.76 16.384 38.144z m-163.392-272.384H326.848l103.488 59.904c16.32 10.88 27.2 27.264 27.2 49.024v435.712h326.784c32.64 0 54.4 21.76 54.4 54.4 0 32.704-21.76 54.528-54.4 54.528H457.6v54.4c0 32.704-21.824 54.528-54.528 54.528a41.6 41.6 0 0 1-27.2-10.88l-272.32-163.392-16.32-16.384v-5.44c-5.504-5.44-10.88-10.88-10.88-21.76v-599.04c0-21.824 16.32-43.584 32.64-49.088 5.44-5.44 16.32-5.44 21.76-5.44h653.568c32.64 0 54.4 21.76 54.4 54.464 0 32.64-21.76 54.464-54.4 54.464z" fill="#e67e22" p-id="27046"></path></svg>