<?xml version="1.0" standalone="no"?><!DOCTYPE svg PUBLIC "-//W3C//DTD SVG 1.1//EN" "http://www.w3.org/Graphics/SVG/1.1/DTD/svg11.dtd"><svg t="1750845807364" class="icon" viewBox="0 0 1024 1024" version="1.1" xmlns="http://www.w3.org/2000/svg" p-id="20872" xmlns:xlink="http://www.w3.org/1999/xlink" width="200" height="200"><path d="M322.456 360.865c-41.302 0-74.906 33.604-74.906 74.91 0 41.302 33.604 74.906 74.906 74.906 41.307 0 74.911-33.604 74.911-74.906 0-41.307-33.604-74.91-74.911-74.91z" fill="#e67e22" p-id="20873"></path><path d="M959.333 306.557c0-89.219-72.584-161.803-161.803-161.803H680.756c-25.163 0-47.996 14.274-58.17 36.36-11.14 24.176-35.399 39.797-61.8 39.797H460.784c-23.583 0-46.916-16.17-59.447-41.201-10.635-21.235-33.327-34.955-57.806-34.955H224.04c-89.219 0-161.803 72.584-161.803 161.803V493.08c0 0.759 0.026 1.514 0.066 2.072-0.04 0.72-0.066 1.444-0.066 2.173l0.004 248.656c0 38.129 14.919 73.993 42.009 100.986 27.147 27.046 63.161 41.925 101.47 41.921h0.535c79.242-0.29 114.707-32.094 140.257-125.961l29.636-90.066h269.281l29.939 91.001c27.595 81.086 58.275 125.026 141.266 125.026 78.685 0 142.701-64.016 142.701-142.701V497.324c0-0.755-0.026-1.505-0.066-2.08 0.039-0.715 0.066-1.435 0.066-2.164V306.557zM322.456 564.615c-71.043 0-128.84-57.797-128.84-128.84s57.797-128.844 128.84-128.844c71.044 0 128.845 57.801 128.845 128.844s-57.801 128.84-128.845 128.84z m478.529-101.876h-74.91v74.91c0 14.892-12.075 26.967-26.967 26.967s-26.967-12.075-26.967-26.967v-74.91h-74.91c-14.893 0-26.967-12.075-26.967-26.967s12.075-26.967 26.967-26.967h74.91v-74.906c0-14.892 12.075-26.967 26.967-26.967 14.893 0 26.967 12.075 26.967 26.967v74.906h74.91c14.892 0 26.967 12.075 26.967 26.967s-12.075 26.967-26.967 26.967z" fill="#e67e22" p-id="20874"></path></svg>