<?xml version="1.0" standalone="no"?><!DOCTYPE svg PUBLIC "-//W3C//DTD SVG 1.1//EN" "http://www.w3.org/Graphics/SVG/1.1/DTD/svg11.dtd"><svg t="1750846782327" class="icon" viewBox="0 0 1024 1024" version="1.1" xmlns="http://www.w3.org/2000/svg" p-id="7710" xmlns:xlink="http://www.w3.org/1999/xlink" width="200" height="200"><path d="M630.784 883.712c-83.968-83.968-83.968-221.184 0-305.152 72.704-72.704 183.296-82.944 266.24-30.72V202.752C897.024 118.784 829.44 51.2 745.472 51.2h-583.68C77.824 51.2 10.24 118.784 10.24 202.752V839.68c0 83.968 67.584 151.552 151.552 151.552h583.68c49.152 0 93.184-23.552 120.832-60.416-77.824 32.768-172.032 17.408-235.52-47.104zM212.992 249.856h481.28c27.648 0 49.152 22.528 49.152 49.152S720.896 348.16 694.272 348.16h-481.28c-27.648 0-49.152-22.528-49.152-49.152s22.528-49.152 49.152-49.152z m179.2 542.72H212.992c-27.648 0-49.152-22.528-49.152-49.152s22.528-49.152 49.152-49.152h179.2c27.648 0 49.152 22.528 49.152 49.152s-21.504 49.152-49.152 49.152z m10.24-222.208H212.992c-27.648 0-49.152-22.528-49.152-49.152 0-27.648 22.528-49.152 49.152-49.152h189.44c27.648 0 49.152 22.528 49.152 49.152 0 27.648-21.504 49.152-49.152 49.152z" fill="#e67e22" p-id="7711"></path><path d="M1014.784 915.456l-81.92-81.92c47.104-68.608 39.936-163.84-21.504-225.28-69.632-69.632-181.248-69.632-250.88 0-69.632 69.632-69.632 181.248 0 250.88 62.464 62.464 159.744 68.608 229.376 18.432l80.896 80.896c12.288 12.288 31.744 12.288 44.032 0 12.288-11.264 12.288-31.744 0-43.008z m-145.408-98.304c-46.08 46.08-119.808 46.08-164.864 0-46.08-46.08-46.08-119.808 0-164.864s119.808-46.08 164.864 0 45.056 118.784 0 164.864z" fill="#e67e22" p-id="7712"></path></svg>